{
  "source": "C:\\Users\\Peter\\Desktop\\stuff\\MIUN\\quantitative_research\\video_compression\\videos\\BVI-HD\\BVI-HD_CDVL_videos\\ORIG\\BricksLeaves_1920x1080_60fps.mp4",
  "output": "C:\\Users\\Peter\\Desktop\\stuff\\MIUN\\quantitative_research\\video_compression\\compressed_videos\\BVI-HD\\h264\\2.5\\BricksLeaves_1920x1080_60fps_h264.mp4",
  "codec": "h264",
  "ok": "Input #0, mov,mp4,m4a,3gp,3g2,mj2, from 'C:\\Users\\Peter\\Desktop\\stuff\\MIUN\\quantitative_research\\video_compression\\videos\\BVI-HD\\BVI-HD_CDVL_videos\\ORIG\\BricksLeaves_1920x1080_60fps.mp4':\n  Metadata:\n    major_brand     : isom\n    minor_version   : 512\n    compatible_brands: isomiso2avc1mp41\n    encoder         : Lavf54.28.101\n  Duration: 00:00:05.00, start: 0.000000, bitrate: 524627 kb/s\n  Stream #0:0[0x1](und): Video: h264 (High 4:4:4 Predictive) (avc1 / 0x31637661), yuv420p(progressive), 1920x1080, 524622 kb/s, 60 fps, 60 tbr, 60 tbn (default)\n    Metadata:\n      handler_name    : VideoHandler\n      vendor_id       : [0][0][0][0]\n[out#0/mp4 @ 0000021ac7ee9b40] Codec AVOption b:a (set bitrate (in bits/s)) has not been used for any stream. The most likely reason is either wrong type (e.g. a video option with no video streams) or that it is a private option of some decoder which was not actually used for any stream.\nStream mapping:\n  Stream #0:0 -> #0:0 (h264 (native) -> h264 (libx264))\nPress [q] to stop, [?] for help\n[libx264 @ 0000021ac8aa04c0] using cpu capabilities: MMX2 SSE2Fast SSSE3 SSE4.2 AVX FMA3 BMI2 AVX2\n[libx264 @ 0000021ac8aa04c0] profile High, level 5.0, 4:2:0, 8-bit\n[libx264 @ 0000021ac8aa04c0] 264 - core 165 r3222 b35605a - H.264/MPEG-4 AVC codec - Copyleft 2003-2025 - http://www.videolan.org/x264.html - options: cabac=1 ref=5 deblock=1:0:0 analyse=0x3:0x113 me=hex subme=8 psy=1 psy_rd=1.00:0.00 mixed_ref=1 me_range=16 chroma_me=1 trellis=2 8x8dct=1 cqm=0 deadzone=21,11 fast_pskip=1 chroma_qp_offset=-2 threads=18 lookahead_threads=3 sliced_threads=0 nr=0 decimate=1 interlaced=0 bluray_compat=0 constrained_intra=0 bframes=3 b_pyramid=2 b_adapt=1 b_bias=0 direct=3 weightb=1 open_gop=0 weightp=2 keyint=250 keyint_min=25 scenecut=40 intra_refresh=0 rc_lookahead=50 rc=cbr mbtree=1 bitrate=2500 ratetol=1.0 qcomp=0.60 qpmin=0 qpmax=69 qpstep=4 vbv_maxrate=2500 vbv_bufsize=2500 nal_hrd=none filler=0 ip_ratio=1.40 aq=1:1.00\nOutput #0, mp4, to 'C:\\Users\\Peter\\Desktop\\stuff\\MIUN\\quantitative_research\\video_compression\\compressed_videos\\BVI-HD\\h264\\2.5\\BricksLeaves_1920x1080_60fps_h264.mp4':\n  Metadata:\n    major_brand     : isom\n    minor_version   : 512\n    compatible_brands: isomiso2avc1mp41\n    encoder         : Lavf62.3.100\n  Stream #0:0(und): Video: h264 (avc1 / 0x31637661), yuv420p(tv, progressive), 1920x1080, q=2-31, 2500 kb/s, 60 fps, 15360 tbn (default)\n    Metadata:\n      encoder         : Lavc62.11.100 libx264\n      handler_name    : VideoHandler\n      vendor_id       : [0][0][0][0]\n    Side data:\n      cpb: bitrate max/min/avg: 2500000/0/2500000 buffer size: 2500000 vbv_delay: N/A\nframe=    0 fps=0.0 q=0.0 size=       0KiB time=N/A bitrate=N/A speed=N/A elapsed=0:00:01.21    \nframe=    0 fps=0.0 q=0.0 size=       0KiB time=N/A bitrate=N/A speed=N/A elapsed=0:00:01.81    \nframe=    0 fps=0.0 q=0.0 size=       0KiB time=N/A bitrate=N/A speed=N/A elapsed=0:00:02.37    \nframe=   28 fps=9.5 q=42.0 size=       0KiB time=00:00:00.36 bitrate=   1.0kbits/s speed=0.124x elapsed=0:00:02.95    \nframe=   60 fps= 17 q=42.0 size=       0KiB time=00:00:00.86 bitrate=   0.4kbits/s speed=0.244x elapsed=0:00:03.54    \nframe=   86 fps= 21 q=42.0 size=     256KiB time=00:00:01.40 bitrate=1498.2kbits/s speed=0.337x elapsed=0:00:04.15    \nframe=  110 fps= 23 q=42.0 size=     256KiB time=00:00:01.76 bitrate=1187.3kbits/s speed=0.375x elapsed=0:00:04.71    \nframe=  132 fps= 25 q=42.0 size=     512KiB time=00:00:02.13 bitrate=1966.3kbits/s speed=0.403x elapsed=0:00:05.28    \nframe=  152 fps= 26 q=42.0 size=     512KiB time=00:00:02.43 bitrate=1723.8kbits/s speed=0.417x elapsed=0:00:05.83    \nframe=  174 fps= 27 q=42.0 size=     512KiB time=00:00:02.86 bitrate=1463.3kbits/s speed=0.443x elapsed=0:00:06.46    \nframe=  196 fps= 28 q=42.0 size=     768KiB time=00:00:03.23 bitrate=1945.9kbits/s speed=0.457x elapsed=0:00:07.08    \nframe=  211 fps= 27 q=43.0 size=     768KiB time=00:00:03.46 bitrate=1815.0kbits/s speed=0.449x elapsed=0:00:07.72    \nframe=  233 fps= 28 q=46.0 size=     768KiB time=00:00:03.85 bitrate=1634.2kbits/s speed=0.464x elapsed=0:00:08.30    \nframe=  256 fps= 29 q=48.0 size=    1024KiB time=00:00:04.23 bitrate=1981.7kbits/s speed=0.479x elapsed=0:00:08.83    \nframe=  291 fps= 31 q=-1.0 size=    1280KiB time=00:00:04.81 bitrate=2177.1kbits/s speed=0.515x elapsed=0:00:09.35    \n[mp4 @ 0000021ac7f77ac0] Starting second pass: moving the moov atom to the beginning of the file\n[out#0/mp4 @ 0000021ac7ee9b40] video:1483KiB audio:0KiB subtitle:0KiB other streams:0KiB global headers:0KiB muxing overhead: 0.294509%\nframe=  300 fps= 31 q=-1.0 Lsize=    1487KiB time=00:00:04.96 bitrate=2452.5kbits/s speed=0.519x elapsed=0:00:09.56    \n[libx264 @ 0000021ac8aa04c0] frame I:2     Avg QP:40.45  size: 94540\n[libx264 @ 0000021ac8aa04c0] frame P:76    Avg QP:42.54  size:  8184\n[libx264 @ 0000021ac8aa04c0] frame B:222   Avg QP:47.63  size:  3181\n[libx264 @ 0000021ac8aa04c0] consecutive B-frames:  1.3%  0.0%  0.0% 98.7%\n[libx264 @ 0000021ac8aa04c0] mb I  I16..4:  5.3% 84.9%  9.7%\n[libx264 @ 0000021ac8aa04c0] mb P  I16..4:  1.5%  2.3%  0.0%  P16..4: 18.7%  2.3%  3.9%  0.0%  0.0%    skip:71.4%\n[libx264 @ 0000021ac8aa04c0] mb B  I16..4:  0.2%  0.3%  0.0%  B16..8: 13.5%  1.4%  0.2%  direct: 1.0%  skip:83.4%  L0:52.3% L1:44.8% BI: 2.8%\n[libx264 @ 0000021ac8aa04c0] 8x8 transform intra:69.5% inter:92.6%\n[libx264 @ 0000021ac8aa04c0] direct mvs  spatial:95.5% temporal:4.5%\n[libx264 @ 0000021ac8aa04c0] coded y,uvDC,uvAC intra: 44.6% 47.4% 4.6% inter: 3.5% 3.8% 0.0%\n[libx264 @ 0000021ac8aa04c0] i16 v,h,dc,p: 21% 27% 11% 41%\n[libx264 @ 0000021ac8aa04c0] i8 v,h,dc,ddl,ddr,vr,hd,vl,hu:  6%  8%  9% 11% 12% 11% 15% 12% 15%\n[libx264 @ 0000021ac8aa04c0] i4 v,h,dc,ddl,ddr,vr,hd,vl,hu:  4%  6%  2% 11% 12% 13% 17% 12% 22%\n[libx264 @ 0000021ac8aa04c0] i8c dc,h,v,p: 71% 17%  9%  4%\n[libx264 @ 0000021ac8aa04c0] Weighted P-Frames: Y:0.0% UV:0.0%\n[libx264 @ 0000021ac8aa04c0] ref P L0: 46.0%  5.4% 23.6% 12.3% 12.7%\n[libx264 @ 0000021ac8aa04c0] ref B L0: 65.3% 19.7% 11.3%  3.6%\n[libx264 @ 0000021ac8aa04c0] ref B L1: 87.2% 12.8%\n[libx264 @ 0000021ac8aa04c0] kb/s:2427.78\n",
  "seconds": 10.110337972640991,
  "probe_out": {}
}